<mxfile host="app.diagrams.net" agent="Mozilla/5.0 (X11; Linux x86_64; rv:131.0) Gecko/20100101 Firefox/131.0" version="24.7.17">
  <diagram name="Page-1" id="dTGdLPV8XZBN9EGEh0q5">
    <mxGraphModel dx="618" dy="787" grid="1" gridSize="10" guides="1" tooltips="1" connect="1" arrows="1" fold="1" page="1" pageScale="1" pageWidth="850" pageHeight="1100" math="0" shadow="0">
      <root>
        <mxCell id="0" />
        <mxCell id="1" parent="0" />
        <mxCell id="ewujGKf4Bl9Syugz0QOC-3" style="edgeStyle=orthogonalEdgeStyle;rounded=0;orthogonalLoop=1;jettySize=auto;html=1;entryX=0.5;entryY=0;entryDx=0;entryDy=0;" parent="1" source="ewujGKf4Bl9Syugz0QOC-1" edge="1">
          <mxGeometry relative="1" as="geometry">
            <mxPoint x="420" y="140" as="targetPoint" />
          </mxGeometry>
        </mxCell>
        <mxCell id="ewujGKf4Bl9Syugz0QOC-1" value="&lt;div&gt;start&lt;/div&gt;" style="ellipse;whiteSpace=wrap;html=1;" parent="1" vertex="1">
          <mxGeometry x="360" y="40" width="120" height="60" as="geometry" />
        </mxCell>
        <mxCell id="ewujGKf4Bl9Syugz0QOC-7" style="edgeStyle=orthogonalEdgeStyle;rounded=0;orthogonalLoop=1;jettySize=auto;html=1;entryX=0.5;entryY=0;entryDx=0;entryDy=0;" parent="1" target="ewujGKf4Bl9Syugz0QOC-4" edge="1">
          <mxGeometry relative="1" as="geometry">
            <mxPoint x="420" y="200" as="sourcePoint" />
          </mxGeometry>
        </mxCell>
        <mxCell id="ewujGKf4Bl9Syugz0QOC-16" style="edgeStyle=orthogonalEdgeStyle;rounded=0;orthogonalLoop=1;jettySize=auto;html=1;entryX=0.5;entryY=0;entryDx=0;entryDy=0;" parent="1" source="ewujGKf4Bl9Syugz0QOC-4" target="ewujGKf4Bl9Syugz0QOC-15" edge="1">
          <mxGeometry relative="1" as="geometry" />
        </mxCell>
        <mxCell id="ewujGKf4Bl9Syugz0QOC-4" value="&lt;div&gt;i = 0&lt;/div&gt;" style="rounded=1;whiteSpace=wrap;html=1;" parent="1" vertex="1">
          <mxGeometry x="360" y="250" width="120" height="60" as="geometry" />
        </mxCell>
        <mxCell id="ewujGKf4Bl9Syugz0QOC-9" style="edgeStyle=orthogonalEdgeStyle;rounded=0;orthogonalLoop=1;jettySize=auto;html=1;entryX=0.5;entryY=0;entryDx=0;entryDy=0;" parent="1" source="ewujGKf4Bl9Syugz0QOC-5" target="ewujGKf4Bl9Syugz0QOC-8" edge="1">
          <mxGeometry relative="1" as="geometry" />
        </mxCell>
        <mxCell id="ewujGKf4Bl9Syugz0QOC-5" value="add element from input into array" style="rounded=1;whiteSpace=wrap;html=1;" parent="1" vertex="1">
          <mxGeometry x="360" y="470" width="120" height="60" as="geometry" />
        </mxCell>
        <mxCell id="ewujGKf4Bl9Syugz0QOC-20" style="edgeStyle=orthogonalEdgeStyle;rounded=0;orthogonalLoop=1;jettySize=auto;html=1;" parent="1" source="ewujGKf4Bl9Syugz0QOC-8" edge="1">
          <mxGeometry relative="1" as="geometry">
            <mxPoint x="420" y="340" as="targetPoint" />
            <Array as="points">
              <mxPoint x="530" y="600" />
              <mxPoint x="530" y="340" />
            </Array>
          </mxGeometry>
        </mxCell>
        <mxCell id="ewujGKf4Bl9Syugz0QOC-8" value="i++" style="rounded=1;whiteSpace=wrap;html=1;" parent="1" vertex="1">
          <mxGeometry x="360" y="570" width="120" height="60" as="geometry" />
        </mxCell>
        <mxCell id="ewujGKf4Bl9Syugz0QOC-17" style="edgeStyle=orthogonalEdgeStyle;rounded=0;orthogonalLoop=1;jettySize=auto;html=1;exitX=0.5;exitY=1;exitDx=0;exitDy=0;entryX=0.5;entryY=0;entryDx=0;entryDy=0;" parent="1" source="ewujGKf4Bl9Syugz0QOC-15" target="ewujGKf4Bl9Syugz0QOC-5" edge="1">
          <mxGeometry relative="1" as="geometry" />
        </mxCell>
        <mxCell id="ewujGKf4Bl9Syugz0QOC-21" value="&lt;div&gt;true&lt;/div&gt;" style="edgeLabel;html=1;align=center;verticalAlign=middle;resizable=0;points=[];" parent="ewujGKf4Bl9Syugz0QOC-17" vertex="1" connectable="0">
          <mxGeometry y="2" relative="1" as="geometry">
            <mxPoint x="-2" y="-10" as="offset" />
          </mxGeometry>
        </mxCell>
        <mxCell id="ewujGKf4Bl9Syugz0QOC-42" style="edgeStyle=orthogonalEdgeStyle;rounded=0;orthogonalLoop=1;jettySize=auto;html=1;entryX=0;entryY=0.5;entryDx=0;entryDy=0;" parent="1" source="ewujGKf4Bl9Syugz0QOC-15" target="ewujGKf4Bl9Syugz0QOC-23" edge="1">
          <mxGeometry relative="1" as="geometry">
            <mxPoint x="700" y="740" as="targetPoint" />
            <Array as="points">
              <mxPoint x="310" y="400" />
              <mxPoint x="310" y="670" />
              <mxPoint x="580" y="670" />
              <mxPoint x="580" y="280" />
            </Array>
          </mxGeometry>
        </mxCell>
        <mxCell id="ewujGKf4Bl9Syugz0QOC-15" value="i &amp;lt; n" style="rhombus;whiteSpace=wrap;html=1;" parent="1" vertex="1">
          <mxGeometry x="360" y="370" width="120" height="60" as="geometry" />
        </mxCell>
        <mxCell id="ewujGKf4Bl9Syugz0QOC-22" style="edgeStyle=orthogonalEdgeStyle;rounded=0;orthogonalLoop=1;jettySize=auto;html=1;entryX=0.5;entryY=0;entryDx=0;entryDy=0;" parent="1" source="ewujGKf4Bl9Syugz0QOC-23" target="ewujGKf4Bl9Syugz0QOC-30" edge="1">
          <mxGeometry relative="1" as="geometry" />
        </mxCell>
        <mxCell id="ewujGKf4Bl9Syugz0QOC-23" value="&lt;div&gt;i = 0&lt;/div&gt;" style="rounded=1;whiteSpace=wrap;html=1;" parent="1" vertex="1">
          <mxGeometry x="820" y="250" width="120" height="60" as="geometry" />
        </mxCell>
        <mxCell id="ewujGKf4Bl9Syugz0QOC-41" style="edgeStyle=orthogonalEdgeStyle;rounded=0;orthogonalLoop=1;jettySize=auto;html=1;" parent="1" source="ewujGKf4Bl9Syugz0QOC-27" edge="1">
          <mxGeometry relative="1" as="geometry">
            <mxPoint x="880" y="350" as="targetPoint" />
            <Array as="points">
              <mxPoint x="880" y="720" />
              <mxPoint x="1190" y="720" />
              <mxPoint x="1190" y="350" />
              <mxPoint x="960" y="350" />
            </Array>
          </mxGeometry>
        </mxCell>
        <mxCell id="ewujGKf4Bl9Syugz0QOC-27" value="i++" style="rounded=1;whiteSpace=wrap;html=1;" parent="1" vertex="1">
          <mxGeometry x="820" y="640" width="120" height="60" as="geometry" />
        </mxCell>
        <mxCell id="ewujGKf4Bl9Syugz0QOC-28" style="edgeStyle=orthogonalEdgeStyle;rounded=0;orthogonalLoop=1;jettySize=auto;html=1;exitX=0.5;exitY=1;exitDx=0;exitDy=0;entryX=0.5;entryY=0;entryDx=0;entryDy=0;" parent="1" source="ewujGKf4Bl9Syugz0QOC-30" edge="1">
          <mxGeometry relative="1" as="geometry">
            <mxPoint x="880" y="480" as="targetPoint" />
          </mxGeometry>
        </mxCell>
        <mxCell id="ewujGKf4Bl9Syugz0QOC-29" value="&lt;div&gt;true&lt;/div&gt;" style="edgeLabel;html=1;align=center;verticalAlign=middle;resizable=0;points=[];" parent="ewujGKf4Bl9Syugz0QOC-28" vertex="1" connectable="0">
          <mxGeometry y="2" relative="1" as="geometry">
            <mxPoint x="-2" y="-10" as="offset" />
          </mxGeometry>
        </mxCell>
        <mxCell id="ewujGKf4Bl9Syugz0QOC-48" style="edgeStyle=orthogonalEdgeStyle;rounded=0;orthogonalLoop=1;jettySize=auto;html=1;exitX=0;exitY=0.5;exitDx=0;exitDy=0;entryX=0.5;entryY=0;entryDx=0;entryDy=0;" parent="1" source="ewujGKf4Bl9Syugz0QOC-30" target="ewujGKf4Bl9Syugz0QOC-45" edge="1">
          <mxGeometry relative="1" as="geometry" />
        </mxCell>
        <mxCell id="ewujGKf4Bl9Syugz0QOC-49" value="false" style="edgeLabel;html=1;align=center;verticalAlign=middle;resizable=0;points=[];" parent="ewujGKf4Bl9Syugz0QOC-48" vertex="1" connectable="0">
          <mxGeometry x="-0.567" y="2" relative="1" as="geometry">
            <mxPoint as="offset" />
          </mxGeometry>
        </mxCell>
        <mxCell id="ewujGKf4Bl9Syugz0QOC-30" value="i &amp;lt; n-1" style="rhombus;whiteSpace=wrap;html=1;" parent="1" vertex="1">
          <mxGeometry x="820" y="370" width="120" height="60" as="geometry" />
        </mxCell>
        <mxCell id="ewujGKf4Bl9Syugz0QOC-37" style="edgeStyle=orthogonalEdgeStyle;rounded=0;orthogonalLoop=1;jettySize=auto;html=1;entryX=0;entryY=0.5;entryDx=0;entryDy=0;" parent="1" source="ewujGKf4Bl9Syugz0QOC-35" target="ewujGKf4Bl9Syugz0QOC-36" edge="1">
          <mxGeometry relative="1" as="geometry" />
        </mxCell>
        <mxCell id="ewujGKf4Bl9Syugz0QOC-38" value="true" style="edgeLabel;html=1;align=center;verticalAlign=middle;resizable=0;points=[];" parent="ewujGKf4Bl9Syugz0QOC-37" vertex="1" connectable="0">
          <mxGeometry x="-0.2444" y="1" relative="1" as="geometry">
            <mxPoint as="offset" />
          </mxGeometry>
        </mxCell>
        <mxCell id="ewujGKf4Bl9Syugz0QOC-39" style="edgeStyle=orthogonalEdgeStyle;rounded=0;orthogonalLoop=1;jettySize=auto;html=1;entryX=0.5;entryY=0;entryDx=0;entryDy=0;" parent="1" source="ewujGKf4Bl9Syugz0QOC-35" target="ewujGKf4Bl9Syugz0QOC-27" edge="1">
          <mxGeometry relative="1" as="geometry" />
        </mxCell>
        <mxCell id="ewujGKf4Bl9Syugz0QOC-40" value="&lt;div&gt;false&lt;/div&gt;" style="edgeLabel;html=1;align=center;verticalAlign=middle;resizable=0;points=[];" parent="ewujGKf4Bl9Syugz0QOC-39" vertex="1" connectable="0">
          <mxGeometry x="-0.2867" y="1" relative="1" as="geometry">
            <mxPoint as="offset" />
          </mxGeometry>
        </mxCell>
        <mxCell id="ewujGKf4Bl9Syugz0QOC-35" value="&lt;div&gt;difference between&amp;nbsp;&lt;/div&gt;&lt;div&gt;element at index i and element&amp;nbsp;&lt;/div&gt;&lt;div&gt;at index i+1 is less than 2&lt;/div&gt;" style="rhombus;whiteSpace=wrap;html=1;" parent="1" vertex="1">
          <mxGeometry x="770" y="480" width="220" height="110" as="geometry" />
        </mxCell>
        <mxCell id="ewujGKf4Bl9Syugz0QOC-36" value="print &quot;NO&quot;" style="ellipse;whiteSpace=wrap;html=1;" parent="1" vertex="1">
          <mxGeometry x="1050" y="495" width="120" height="80" as="geometry" />
        </mxCell>
        <mxCell id="ewujGKf4Bl9Syugz0QOC-45" value="&lt;div&gt;print &quot;YES&quot;&lt;/div&gt;because every distance is greater or equal to 2" style="ellipse;whiteSpace=wrap;html=1;" parent="1" vertex="1">
          <mxGeometry x="630" y="492.5" width="120" height="85" as="geometry" />
        </mxCell>
        <mxCell id="vlH73QQjVyQt3evko-4h-1" value="enter length of array (n)" style="shape=parallelogram;perimeter=parallelogramPerimeter;whiteSpace=wrap;html=1;fixedSize=1;" vertex="1" parent="1">
          <mxGeometry x="360" y="140" width="120" height="60" as="geometry" />
        </mxCell>
      </root>
    </mxGraphModel>
  </diagram>
</mxfile>
